<svg width="16" height="16" viewBox="0 0 16 16" fill="none" xmlns="http://www.w3.org/2000/svg">
<path d="M12.75 12.5C11.9175 12.5 11.25 13.1675 11.25 14C11.25 14.3978 11.408 14.7794 11.6893 15.0607C11.9706 15.342 12.3522 15.5 12.75 15.5C13.1478 15.5 13.5294 15.342 13.8107 15.0607C14.092 14.7794 14.25 14.3978 14.25 14C14.25 13.1675 13.575 12.5 12.75 12.5ZM0.75 0.5V2H2.25L4.95 7.6925L3.93 9.53C3.8175 9.74 3.75 9.9875 3.75 10.25C3.75 10.6478 3.90804 11.0294 4.18934 11.3107C4.47064 11.592 4.85218 11.75 5.25 11.75H14.25V10.25H5.565C5.51527 10.25 5.46758 10.2302 5.43242 10.1951C5.39725 10.1599 5.3775 10.1122 5.3775 10.0625C5.3775 10.025 5.385 9.995 5.4 9.9725L6.075 8.75H11.6625C12.225 8.75 12.72 8.435 12.975 7.9775L15.66 3.125C15.7125 3.005 15.75 2.8775 15.75 2.75C15.75 2.55109 15.671 2.36032 15.5303 2.21967C15.3897 2.07902 15.1989 2 15 2H3.9075L3.2025 0.5M5.25 12.5C4.4175 12.5 3.75 13.1675 3.75 14C3.75 14.3978 3.90804 14.7794 4.18934 15.0607C4.47064 15.342 4.85218 15.5 5.25 15.5C5.64782 15.5 6.02936 15.342 6.31066 15.0607C6.59196 14.7794 6.75 14.3978 6.75 14C6.75 13.1675 6.075 12.5 5.25 12.5Z" fill="black"/>
</svg>
