<svg width="149" height="19" viewBox="0 0 149 19" fill="none" xmlns="http://www.w3.org/2000/svg">
<path d="M3.592 8.76H11.656V11.88H3.592V8.76ZM3.88 18H-0.0079999V1.2H12.688V4.32H3.88V18ZM15.0561 18V0.191999H18.8001V18H15.0561ZM28.4189 18.192C27.0429 18.192 25.8189 17.904 24.7469 17.328C23.6909 16.752 22.8509 15.968 22.2269 14.976C21.6189 13.968 21.3149 12.824 21.3149 11.544C21.3149 10.248 21.6189 9.104 22.2269 8.112C22.8509 7.104 23.6909 6.32 24.7469 5.76C25.8189 5.184 27.0429 4.896 28.4189 4.896C29.7789 4.896 30.9949 5.184 32.0669 5.76C33.1389 6.32 33.9789 7.096 34.5869 8.088C35.1949 9.08 35.4989 10.232 35.4989 11.544C35.4989 12.824 35.1949 13.968 34.5869 14.976C33.9789 15.968 33.1389 16.752 32.0669 17.328C30.9949 17.904 29.7789 18.192 28.4189 18.192ZM28.4189 15.12C29.0429 15.12 29.6029 14.976 30.0989 14.688C30.5949 14.4 30.9869 13.992 31.2749 13.464C31.5629 12.92 31.7069 12.28 31.7069 11.544C31.7069 10.792 31.5629 10.152 31.2749 9.624C30.9869 9.096 30.5949 8.688 30.0989 8.4C29.6029 8.112 29.0429 7.968 28.4189 7.968C27.7949 7.968 27.2349 8.112 26.7389 8.4C26.2429 8.688 25.8429 9.096 25.5389 9.624C25.2509 10.152 25.1069 10.792 25.1069 11.544C25.1069 12.28 25.2509 12.92 25.5389 13.464C25.8429 13.992 26.2429 14.4 26.7389 14.688C27.2349 14.976 27.7949 15.12 28.4189 15.12ZM40.6019 18L35.9459 5.088H39.4739L43.3379 16.2H41.6579L45.6899 5.088H48.8579L52.7699 16.2H51.0899L55.0739 5.088H58.3859L53.7059 18H50.0819L46.6499 8.472H47.7539L44.2019 18H40.6019ZM66.1829 18.192C64.7109 18.192 63.4149 17.904 62.2949 17.328C61.1909 16.752 60.3349 15.968 59.7269 14.976C59.1189 13.968 58.8149 12.824 58.8149 11.544C58.8149 10.248 59.1109 9.104 59.7029 8.112C60.3109 7.104 61.1349 6.32 62.1749 5.76C63.2149 5.184 64.3909 4.896 65.7029 4.896C66.9669 4.896 68.1029 5.168 69.1109 5.712C70.1349 6.24 70.9429 7.008 71.5349 8.016C72.1269 9.008 72.4229 10.2 72.4229 11.592C72.4229 11.736 72.4149 11.904 72.3989 12.096C72.3829 12.272 72.3669 12.44 72.3509 12.6H61.8629V10.416H70.3829L68.9429 11.064C68.9429 10.392 68.8069 9.808 68.5349 9.312C68.2629 8.816 67.8869 8.432 67.4069 8.16C66.9269 7.872 66.3669 7.728 65.7269 7.728C65.0869 7.728 64.5189 7.872 64.0229 8.16C63.5429 8.432 63.1669 8.824 62.8949 9.336C62.6229 9.832 62.4869 10.424 62.4869 11.112V11.688C62.4869 12.392 62.6389 13.016 62.9429 13.56C63.2629 14.088 63.7029 14.496 64.2629 14.784C64.8389 15.056 65.5109 15.192 66.2789 15.192C66.9669 15.192 67.5669 15.088 68.0789 14.88C68.6069 14.672 69.0869 14.36 69.5189 13.944L71.5109 16.104C70.9189 16.776 70.1749 17.296 69.2789 17.664C68.3829 18.016 67.3509 18.192 66.1829 18.192ZM74.9155 18V5.088H78.4915V8.736L77.9875 7.68C78.3715 6.768 78.9875 6.08 79.8355 5.616C80.6835 5.136 81.7155 4.896 82.9315 4.896V8.352C82.7715 8.336 82.6275 8.328 82.4995 8.328C82.3715 8.312 82.2355 8.304 82.0915 8.304C81.0675 8.304 80.2355 8.6 79.5955 9.192C78.9715 9.768 78.6595 10.672 78.6595 11.904V18H74.9155ZM90.8245 18.288C89.4805 18.288 88.1925 18.112 86.9605 17.76C85.7285 17.392 84.7365 16.92 83.9845 16.344L85.3045 13.416C86.0245 13.928 86.8725 14.352 87.8485 14.688C88.8405 15.008 89.8405 15.168 90.8485 15.168C91.6165 15.168 92.2325 15.096 92.6965 14.952C93.1765 14.792 93.5285 14.576 93.7525 14.304C93.9765 14.032 94.0885 13.72 94.0885 13.368C94.0885 12.92 93.9125 12.568 93.5605 12.312C93.2085 12.04 92.7445 11.824 92.1685 11.664C91.5925 11.488 90.9525 11.328 90.2485 11.184C89.5605 11.024 88.8645 10.832 88.1605 10.608C87.4725 10.384 86.8405 10.096 86.2645 9.744C85.6885 9.392 85.2165 8.928 84.8485 8.352C84.4965 7.776 84.3205 7.04 84.3205 6.144C84.3205 5.184 84.5765 4.312 85.0885 3.528C85.6165 2.728 86.4005 2.096 87.4405 1.632C88.4965 1.152 89.8165 0.912 91.4005 0.912C92.4565 0.912 93.4965 1.04 94.5205 1.296C95.5445 1.536 96.4485 1.904 97.2325 2.4L96.0325 5.352C95.2485 4.904 94.4645 4.576 93.6805 4.368C92.8965 4.144 92.1285 4.032 91.3765 4.032C90.6245 4.032 90.0085 4.12 89.5285 4.296C89.0485 4.472 88.7045 4.704 88.4965 4.992C88.2885 5.264 88.1845 5.584 88.1845 5.952C88.1845 6.384 88.3605 6.736 88.7125 7.008C89.0645 7.264 89.5285 7.472 90.1045 7.632C90.6805 7.792 91.3125 7.952 92.0005 8.112C92.7045 8.272 93.4005 8.456 94.0885 8.664C94.7925 8.872 95.4325 9.152 96.0085 9.504C96.5845 9.856 97.0485 10.32 97.4005 10.896C97.7685 11.472 97.9525 12.2 97.9525 13.08C97.9525 14.024 97.6885 14.888 97.1605 15.672C96.6325 16.456 95.8405 17.088 94.7845 17.568C93.7445 18.048 92.4245 18.288 90.8245 18.288ZM105.625 18.192C104.105 18.192 102.921 17.808 102.073 17.04C101.225 16.256 100.801 15.096 100.801 13.56V2.232H104.545V13.512C104.545 14.056 104.689 14.48 104.977 14.784C105.265 15.072 105.657 15.216 106.153 15.216C106.745 15.216 107.249 15.056 107.665 14.736L108.673 17.376C108.289 17.648 107.825 17.856 107.281 18C106.753 18.128 106.201 18.192 105.625 18.192ZM98.8092 8.256V5.376H107.761V8.256H98.8092ZM116.52 18.192C115.144 18.192 113.92 17.904 112.848 17.328C111.792 16.752 110.952 15.968 110.328 14.976C109.72 13.968 109.416 12.824 109.416 11.544C109.416 10.248 109.72 9.104 110.328 8.112C110.952 7.104 111.792 6.32 112.848 5.76C113.92 5.184 115.144 4.896 116.52 4.896C117.88 4.896 119.096 5.184 120.168 5.76C121.24 6.32 122.08 7.096 122.688 8.088C123.296 9.08 123.6 10.232 123.6 11.544C123.6 12.824 123.296 13.968 122.688 14.976C122.08 15.968 121.24 16.752 120.168 17.328C119.096 17.904 117.88 18.192 116.52 18.192ZM116.52 15.12C117.144 15.12 117.704 14.976 118.2 14.688C118.696 14.4 119.088 13.992 119.376 13.464C119.664 12.92 119.808 12.28 119.808 11.544C119.808 10.792 119.664 10.152 119.376 9.624C119.088 9.096 118.696 8.688 118.2 8.4C117.704 8.112 117.144 7.968 116.52 7.968C115.896 7.968 115.336 8.112 114.84 8.4C114.344 8.688 113.944 9.096 113.64 9.624C113.352 10.152 113.208 10.792 113.208 11.544C113.208 12.28 113.352 12.92 113.64 13.464C113.944 13.992 114.344 14.4 114.84 14.688C115.336 14.976 115.896 15.12 116.52 15.12ZM126.103 18V5.088H129.679V8.736L129.175 7.68C129.559 6.768 130.175 6.08 131.023 5.616C131.871 5.136 132.903 4.896 134.119 4.896V8.352C133.959 8.336 133.815 8.328 133.687 8.328C133.559 8.312 133.423 8.304 133.279 8.304C132.255 8.304 131.423 8.6 130.783 9.192C130.159 9.768 129.847 10.672 129.847 11.904V18H126.103ZM142.659 18.192C141.187 18.192 139.891 17.904 138.771 17.328C137.667 16.752 136.811 15.968 136.203 14.976C135.595 13.968 135.291 12.824 135.291 11.544C135.291 10.248 135.587 9.104 136.179 8.112C136.787 7.104 137.611 6.32 138.651 5.76C139.691 5.184 140.867 4.896 142.179 4.896C143.443 4.896 144.579 5.168 145.587 5.712C146.611 6.24 147.419 7.008 148.011 8.016C148.603 9.008 148.899 10.2 148.899 11.592C148.899 11.736 148.891 11.904 148.875 12.096C148.859 12.272 148.843 12.44 148.827 12.6H138.339V10.416H146.859L145.419 11.064C145.419 10.392 145.283 9.808 145.011 9.312C144.739 8.816 144.363 8.432 143.883 8.16C143.403 7.872 142.843 7.728 142.203 7.728C141.563 7.728 140.995 7.872 140.499 8.16C140.019 8.432 139.643 8.824 139.371 9.336C139.099 9.832 138.963 10.424 138.963 11.112V11.688C138.963 12.392 139.115 13.016 139.419 13.56C139.739 14.088 140.179 14.496 140.739 14.784C141.315 15.056 141.987 15.192 142.755 15.192C143.443 15.192 144.043 15.088 144.555 14.88C145.083 14.672 145.563 14.36 145.995 13.944L147.987 16.104C147.395 16.776 146.651 17.296 145.755 17.664C144.859 18.016 143.827 18.192 142.659 18.192Z" fill="white"/>
</svg>
