<svg width="11" height="11" viewBox="0 0 11 11" fill="none" xmlns="http://www.w3.org/2000/svg">
<path d="M5.41667 0C8.41208 0 10.8333 2.42125 10.8333 5.41667C10.8333 8.41208 8.41208 10.8333 5.41667 10.8333C2.42125 10.8333 0 8.41208 0 5.41667C0 2.42125 2.42125 0 5.41667 0ZM8.125 2.70833H6.77083L6.22917 2.16667H4.60417L4.0625 2.70833H2.70833V3.79167H8.125V2.70833ZM3.79167 8.66667H7.04167C7.18533 8.66667 7.3231 8.6096 7.42468 8.50802C7.52627 8.40644 7.58333 8.26866 7.58333 8.125V4.33333H3.25V8.125C3.25 8.26866 3.30707 8.40644 3.40865 8.50802C3.51023 8.6096 3.64801 8.66667 3.79167 8.66667Z" fill="#F0D2D1"/>
</svg>
